<svg width="24" height="24" xmlns="http://www.w3.org/2000/svg">

 <g>
  <title>background</title>
  <rect fill="none" id="canvas_background" height="402" width="582" y="-1" x="-1"/>
 </g>
 <g>
  <title>Layer 1</title>
  <path fill="#47cbfc" id="svg_1" d="m21.042923,11.975424l-3.481371,-3.481373a1.054961,1.054961 0 1 1 1.498043,-1.476951l4.219845,4.219851a1.054961,1.054961 0 0 1 0,1.476946l-4.219845,4.219834a1.054961,1.054961 0 0 1 -1.498043,-1.476934l3.481371,-3.481373zm-18.134774,0l3.481369,3.481373a1.054961,1.054961 0 0 1 -1.498045,1.476934l-4.219842,-4.219834a1.054961,1.054961 0 0 1 0,-1.476946l4.219842,-4.219851a1.054961,1.054961 0 0 1 1.498045,1.476951l-3.481369,3.481373zm7.975511,8.692869a1.054961,1.054961 0 0 1 -2.046624,-0.50638l4.219846,-16.879373a1.054961,1.054961 0 1 1 2.046624,0.506381l-4.219846,16.879372z" class="heroicon-ui"/>
 </g>
</svg>