<svg width="390" height="469" xmlns="http://www.w3.org/2000/svg">

 <g>
  <title>background</title>
  <rect fill="none" id="canvas_background" height="471" width="392" y="-1" x="-1"/>
 </g>
 <g>
  <title>Layer 1</title>
  <polygon fill="#47cbfc" id="svg_2" points="240.2585334777832,72.74297904968262 224.2585334777832,72.74297904968262 224.2585334777832,152.74297904968262 304.2585334777832,152.74297904968262 304.2585334777832,136.74297904968262 240.2585334777832,136.74297904968262 "/>
  <path fill="#47cbfc" id="svg_3" d="m261.558533,40.742981l-165.300003,0l0,48l-47.999996,0l0,336l240.000011,0l0,-48l48,0l0,-261l-74.700012,-75zm10.700012,368l-208.000015,0l0,-304l32,0l0,272l176.000015,0l0,32zm48,-48l-208.000015,0l0,-304l142.700012,0l65.300003,65.600006l0,238.399994z"/>
 </g>
</svg>