<svg width="32" height="32" xmlns="http://www.w3.org/2000/svg">

 <title/>
 <g>
  <title>background</title>
  <rect fill="none" id="canvas_background" height="402" width="582" y="-1" x="-1"/>
 </g>
 <g>
  <title>Layer 1</title>
  <path fill="#47cbfc" id="svg_1" d="m10.55,25c-1.25,0.629999 -5.55,-1.620001 -6.73,-2.709999c-0.32,-1.690001 2.18,-11.970001 3.89,-13.680001s5.29,-1.71 5.29,-1.71a1,1 0 0 0 0,-2c-0.18,0 -4.44,0 -6.71,2.29c-1.86,1.87 -5.73,14.680001 -4,16.420001c0.84,0.83 4.9,3.48 7.75,3.48a3.07,3.07 0 0 0 1.41,-0.299999a1,1 0 0 0 0.440001,-1.34a1,1 0 0 0 -1.34,-0.450001z" class="cls-1"/>
  <path fill="#47cbfc" id="svg_2" d="m25.709999,7.19c-2.269999,-2.26 -6.529999,-2.29 -6.709999,-2.29a1,1 0 0 0 0,2c1,0 3.889999,0.31 5.290001,1.71c1.709999,1.71 4.209999,12.000001 3.889999,13.680001c-1.18,1.089998 -5.48,3.339998 -6.73,2.709999a1,1 0 0 0 -1.34,0.450001a1,1 0 0 0 0.439999,1.34a3.07,3.07 0 0 0 1.41,0.299999c2.85,0 6.910002,-2.65 7.75,-3.48c1.730001,-1.74 -2.139999,-14.55 -4,-16.420001z" class="cls-1"/>
  <ellipse fill="#47cbfc" id="svg_3" ry="2.25" rx="2" cy="17.4" cx="12" class="cls-1"/>
  <ellipse fill="#47cbfc" id="svg_4" ry="2.25" rx="2" cy="17.4" cx="20" class="cls-1"/>
  <path fill="#47cbfc" id="svg_5" d="m24,11.9a1,1 0 0 0 0.85,-0.469999a1,1 0 0 0 -0.32,-1.38c-8.43,-5.27 -16.710001,-0.22 -17.060001,0a1,1 0 0 0 1.06,1.7c0.3,-0.19 7.580001,-4.6 14.94,0a1,1 0 0 0 0.530001,0.15z" class="cls-1"/>
  <path fill="#47cbfc" id="svg_6" d="m23.09,23.32a1.15,1.15 0 0 0 0.200001,0.290001a1,1 0 0 0 1.419998,0a4.11,4.11 0 0 0 1.290001,-2.710001a1,1 0 0 0 -0.559999,-0.9a1,1 0 0 0 -1.050001,0.110001a12.9,12.9 0 0 1 -8.389999,2.889999l0,0a13,13 0 0 1 -8.37,-2.9a1,1 0 0 0 -1.07,-0.1a1,1 0 0 0 -0.56,0.9a4.11,4.11 0 0 0 1.29,2.710001a1,1 0 0 0 1.42,0a1.15,1.15 0 0 0 0.2,-0.290001a14.34,14.34 0 0 0 6.75,1.68l0.68,0a14.34,14.34 0 0 0 6.75,-1.68z" class="cls-1"/>
 </g>
</svg>