<svg width="64" height="64" xmlns="http://www.w3.org/2000/svg">

 <g>
  <title>background</title>
  <rect fill="none" id="canvas_background" height="402" width="582" y="-1" x="-1"/>
 </g>
 <g>
  <title>Layer 1</title>
  <path fill="#47cbfc" id="svg_1" d="m20.1,36l3.4,0c0.299999,0 0.6,0.299999 0.6,0.599998l0,21.400002c0,1.099998 0.9,2 2,2l7.800001,0c1.099998,0 2,-0.900002 2,-2l0,-21.400002c0,-0.299999 0.299999,-0.599998 0.599998,-0.599998l5.599998,0c1,0 1.900002,-0.700001 2,-1.700001l1.300003,-7.799999c0.199997,-1.200001 -0.800003,-2.4 -2,-2.4l-6.600002,0c-0.5,0 -0.899998,-0.4 -0.899998,-0.9l0,-5c0,-1.300001 0.699997,-2 2,-2l5.899998,0c1.100002,0 2,-0.900001 2,-2.000001l0,-8c0,-1.1 -0.899998,-2 -2,-2l-7.099998,0c-13,0 -12.700001,10.5 -12.700001,12.000001l0,7.299999c0,0.299999 -0.299999,0.6 -0.6,0.6l-3.4,0c-1.1,0 -2,0.9 -2,2l0,7.800001c0.1,1.199997 1,2.099998 2.1,2.099998z" class="st0"/>
 </g>
</svg>