<svg width="40" height="40" xmlns="http://www.w3.org/2000/svg">

 <g>
  <title>background</title>
  <rect fill="none" id="canvas_background" height="42" width="42" y="-1" x="-1"/>
 </g>
 <g>
  <title>Layer 1</title>
  <path id="Cat_2_" fill="#47cbfc" d="m26.287273,38.056973l-4.743973,0l-4.743992,0c0,0 0,-2.846386 0,-4.743973c-6.522971,1.423191 -8.301961,-3.55798 -8.301961,-3.55798c-1.185994,-2.371986 -2.371986,-3.557981 -2.371986,-3.557981c-2.37198,-1.423191 0,-1.185993 0,-1.185993c2.371986,0 3.55798,2.371988 3.55798,2.371988c2.134789,3.55798 5.811366,2.964983 7.115968,2.371986c0,-1.185993 0.474403,-2.964985 1.186008,-3.557981c-5.218393,-0.592997 -9.487969,-3.55798 -9.487969,-9.487944s1.185993,-7.115961 2.371986,-8.301954c-0.237198,-0.592997 -1.185993,-2.727785 0,-5.929966c0,0 2.371986,0 4.743973,3.55798c1.186002,-1.185993 4.744,-1.185993 5.929994,-1.185993c1.185993,0 4.743973,0 5.929966,1.185993c2.371992,-3.55798 4.743973,-3.55798 4.743973,-3.55798c1.304562,3.202182 0.23719,5.33697 0,5.929966c1.185966,1.185993 2.371937,2.371986 2.371937,8.301954s-4.269524,8.894947 -9.487896,9.487944c0.711599,0.592997 1.185993,2.609186 1.185993,3.557981l0,8.301952l0,0z"/>
 </g>
</svg>