<svg width="512" height="512" xmlns="http://www.w3.org/2000/svg">

 <g>
  <title>background</title>
  <rect fill="none" id="canvas_background" height="402" width="582" y="-1" x="-1"/>
 </g>
 <g>
  <title>Layer 1</title>
  <path fill="#47cbfc" id="svg_2" d="m256.052002,138.087997c-65.268005,0 -117.912994,52.645996 -117.912994,117.912003c0,65.266998 52.644989,117.910004 117.912994,117.910004c65.266998,0 117.911011,-52.644012 117.911011,-117.910004c0,-65.266006 -52.64502,-117.912003 -117.911011,-117.912003zm0,194.570999c-42.177002,0 -76.658997,-34.380005 -76.658997,-76.658997c0,-42.279007 34.377991,-76.656998 76.658997,-76.656998c42.277008,0 76.657013,34.377991 76.657013,76.656998c0,42.278992 -34.480011,76.658997 -76.657013,76.658997l0,0zm150.235992,-199.39299c0,15.291 -12.315002,27.501999 -27.502014,27.501999c-15.291992,0 -27.501984,-12.313995 -27.501984,-27.501999c0,-15.187996 12.312988,-27.502998 27.501984,-27.502998c15.187012,-0.000008 27.502014,12.313995 27.502014,27.502998zm78.093994,27.910995c-1.743011,-36.839005 -10.15799,-69.473999 -37.14801,-96.360001c-26.885986,-26.887001 -59.519989,-35.302002 -96.359985,-37.148001c-37.971008,-2.155001 -151.776993,-2.155001 -189.746994,0c-36.738998,1.743 -69.372009,10.158998 -96.361,37.045996c-26.989998,26.887001 -35.301998,59.520004 -37.148998,96.360001c-2.155001,37.969009 -2.155001,151.776993 0,189.746994c1.744999,36.84201 10.159,69.473022 37.148998,96.361023c26.988998,26.886993 59.520988,35.300995 96.361,37.14798c37.968994,2.153992 151.776016,2.153992 189.746994,0c36.841003,-1.743988 69.475006,-10.16098 96.359985,-37.14798c26.887024,-26.889008 35.302002,-59.52002 37.14801,-96.361023c2.156006,-37.968994 2.156006,-151.674988 0,-189.644989zm-49.052979,230.385986c-8.003998,20.112 -23.5,35.610016 -43.716003,43.716003c-30.27301,12.009003 -102.108002,9.235992 -135.562012,9.235992c-33.455978,0 -105.392975,2.669006 -135.562988,-9.235992c-20.113998,-8.005005 -35.611,-23.498016 -43.716995,-43.716003c-12.005013,-30.27298 -9.233009,-102.108002 -9.233009,-135.562988s-2.668999,-105.391006 9.234001,-135.561996c8.005997,-20.114006 23.5,-35.610001 43.716995,-43.716003c30.272995,-12.007004 102.106995,-9.236 135.563004,-9.236c33.453003,0 105.390991,-2.667999 135.562012,9.236c20.112976,8.001999 35.608978,23.5 43.715973,43.716003c12.007019,30.272003 9.237,102.10701 9.237,135.561996s2.769012,105.391998 -9.237976,135.562988z"/>
 </g>
</svg>