<svg width="49.99999999999999" height="49.99999999999999" xmlns="http://www.w3.org/2000/svg">
 <title/>
 <desc/>

 <g>
  <title>background</title>
  <rect fill="none" id="canvas_background" height="52" width="52" y="-1" x="-1"/>
 </g>
 <g>
  <title>Layer 1</title>
  <path fill="#47cbfc" id="svg_1" d="m13.763512,43.633602l0,-26.088818l-8.063407,0l0,26.088818l8.063407,0zm0,-35.336163c-0.048031,-2.334674 -1.60401,-4.112263 -4.131752,-4.112263c-2.528384,0 -4.180428,1.777589 -4.180428,4.112263c0,2.283974 1.604012,4.112991 4.083723,4.112991l0.048032,0c2.576415,0 4.180425,-1.829018 4.180425,-4.112991zm13.154978,35.336163l0,-14.864155c0,-0.795502 0.057497,-1.591009 0.29143,-2.158096c0.639547,-1.590225 2.095095,-3.236382 4.539104,-3.236382c3.201725,0 5.209667,1.817072 5.209667,5.394478l0,14.864155l8.117809,0l0,-15.2619c0,-8.175594 -4.364246,-11.979849 -10.185616,-11.979849c-4.773045,0 -6.868137,2.668489 -8.03146,4.48476l0.058279,-3.489271l-8.103781,0c0.116566,2.497574 0,26.24626 0,26.24626l8.104567,0z"/>
 </g>
</svg>