<svg width="332" height="332" xmlns="http://www.w3.org/2000/svg">
 <g>
  <title>background</title>
  <rect x="-1" y="-1" width="334" height="334" id="canvas_background" fill="none"/>
 </g>

 <g>
  <title>Layer 1</title>
  <path transform="rotate(141, 217.938, 232.303)" d="m148.866,223.551c7.20199,0 13.37201,-5.391 14.35299,-12.53901c3.84801,-28.03799 29.05301,-48.823 57.37702,-47.31899c27.595,1.468 50.35898,24.23399 51.828,51.82899c0.81198,15.216 -4.51202,29.681 -14.98703,40.72999c-10.48898,11.06401 -24.63299,17.15702 -39.825,17.15702l-15.12399,0l0,51.52398c0,2.78101 2.25501,5.03601 5.037,5.03601l0,0c2.78099,0 5.036,-2.255 5.036,-5.03601l0,-41.45099l5.05,0c17.98401,0 34.724,-7.209 47.13401,-20.29901c12.39798,-13.07599 18.69699,-30.19299 17.737,-48.19699c-0.849,-15.93899 -7.58701,-30.989 -18.97501,-42.376s-26.43799,-18.127 -42.37799,-18.976c-16.47901,-0.877 -32.51401,4.464 -45.149,15.03c-12.47,10.43 -20.54702,24.98201 -22.74199,40.979c-0.30001,2.187 -2.18001,3.83501 -4.37401,3.83501c-1.23799,0 -2.373,-0.49201 -3.21401,-1.39c-0.95298,-1.01701 -1.33299,-2.45601 -1.14099,-3.83602c4.99401,-35.90499 36.088,-63.20699 72.40599,-63.53699c0.23101,-0.003 0.46199,-0.003 0.693,-0.003c19.416,0 37.76301,7.554 51.72899,21.313c14.12402,13.917 21.96301,32.406 22.07202,52.062c0.20599,37.26102 -27.46302,68.91699 -64.36099,73.63401l-4.39701,0.563l0,32.64999c0,2.78101 2.25498,5.03601 5.03598,5.03601l0,0c2.78202,0 5.03702,-2.255 5.03702,-5.03601l0,-23.90199c39.72098,-7.228 68.98401,-42.14999 68.758,-83c-0.124,-22.354 -9.029,-43.37099 -25.07401,-59.181c-16.05499,-15.818 -37.20499,-24.438 -59.58598,-24.209c-20.24201,0.18501 -39.72501,7.683 -54.862,21.112c-14.884,13.205 -24.59801,31.242 -27.39,50.83501c-0.40901,2.873 -0.11501,5.83299 1.09799,8.468c2.44,5.29999 7.63699,8.49399 13.198,8.49399z" id="svg_2" fill="#47cbfc"/>
  <path transform="rotate(143, 112.002, 97.6269)" d="m138.58801,57.51801l0,-26.629l-53.322,0l0,26.629c-36.084,10.95901 -62.844,43.55798 -65.092,82.622c-0.16701,2.89399 2.135,5.33701 5.034,5.33701l0.002,0c2.666,0 4.867,-2.08002 5.022,-4.741c0.131,-2.255 0.35401,-4.483 0.664,-6.68701c26.33701,7.82901 53.54,11.80301 81.021,11.80301c0.75801,0 1.52101,-0.004 2.28099,-0.01001c15.48102,-0.12299 31.04102,-1.52701 46.328,-4.17801c2.78501,-0.48199 4.64102,-3.146 4.107,-5.922l0,0c-0.51599,-2.68798 -3.086,-4.479 -5.78098,-4.01098c-14.76202,2.56198 -29.78601,3.919 -44.73401,4.03799c-27.554,0.22699 -54.83,-3.69299 -81.197,-11.625c9.408,-34.81299 41.26201,-60.50201 79.00801,-60.50201c43.89999,0 79.83798,34.74402 81.754,78.18201c-27.219,8.49401 -55.45099,12.70101 -83.94301,12.45599c-14.94899,-0.12 -29.97299,-1.47699 -44.734,-4.03799c-2.69599,-0.46799 -5.266,1.324 -5.78199,4.01199l0,0c-0.53402,2.77502 1.32199,5.43902 4.10699,5.922c15.287,2.64901 30.847,4.05401 46.329,4.178c0.76001,0.00602 1.52101,0.00901 2.28,0.00901c30.06201,0 59.798,-4.741 88.42401,-14.099l3.471,-1.13501l0,-3.65198c-0.001,-41.41101 -27.53002,-76.50504 -65.247,-87.95901l-0.00001,0zm-43.24901,-2.44602l0,-14.10901l33.17699,0l0,14.10901c-5.38299,-0.98401 -10.92599,-1.504 -16.588,-1.504c-5.66299,0 -11.207,0.52002 -16.58898,1.504l-0.00001,0z" id="svg_3" fill="#ffab3c"/>
  <text transform="rotate(34, 100.125, 208.933)" font-style="normal" font-weight="normal" xml:space="preserve" text-anchor="start" font-family="'Montserrat'" font-size="111" stroke-width="0" id="svg_1" y="248.68333" x="60" fill="#92e0e9">R</text>
  <text transform="rotate(-14, 230.133, 241.933)" xml:space="preserve" text-anchor="start" font-family="'Montserrat'" font-size="111" id="svg_4" y="281.68333" x="195" stroke-width="0" fill="#ffdb11">F</text>
  <text transform="rotate(-39, 230.125, 119.933)" xml:space="preserve" text-anchor="start" font-family="'Montserrat'" font-size="111" id="svg_5" y="159.68333" x="185" stroke-width="0" fill="#1bb1e7">H</text>
 </g>
</svg>