<svg width="56.7" height="56.7" xmlns="http://www.w3.org/2000/svg">

 <g>
  <title>background</title>
  <rect fill="none" id="canvas_background" height="402" width="582" y="-1" x="-1"/>
 </g>
 <g>
  <title>Layer 1</title>
  <path fill="#47cbfc" id="svg_1" d="m53.171902,14.5953l0.001099,-0.0011l-0.001099,0.0008l0,-1.184c0,-2.2468 -1.838402,-4.0852 -4.0853,-4.0852l-0.001202,0.0011l-0.002399,0.001801l0.003601,-0.0029l-41.690401,0l0.0161,0.0131l-0.0161,-0.012c-2.2468,0 -4.0853,1.838401 -4.0853,4.0853l0,27.9073c0,2.246799 1.8384,4.085098 4.0853,4.085098l1.4543,0l38.657801,0l0,-0.000999c4.285599,-0.049797 5.5728,-1.110199 5.6702,-4.080898l-0.006599,-26.727401zm-7.129002,-4.2695l-17.867599,13.1612l-17.751401,-13.1612l35.619,0zm-36.1821,10.226299l16.5508,11.4004l0.0166,0.011501l-16.5769,11.526699l0.0095,-22.938601zm0.4278,23.852499l17.0151,-11.831398l0.2985,0.207699c0.1716,0.1194 0.371401,0.179199 0.571201,0.179199c0.198198,0 0.877298,-0.389999 0.877298,-0.389999l17.019701,11.834499l-35.7818,0zm36.208699,-0.920998l-16.566799,-11.519501l9.239399,-6.364201l7.3274,-5.047199l0,22.930901z"/>
 </g>
</svg>