<svg width="22" height="22" xmlns="http://www.w3.org/2000/svg">

 <g>
  <title>background</title>
  <rect fill="none" id="canvas_background" height="24" width="24" y="-1" x="-1"/>
 </g>
 <g>
  <title>Layer 1</title>
  <path fill="#47cbfc" id="svg_1" d="m17.734337,18.937014c-1.868896,1.826458 -4.324478,2.740154 -6.779485,2.740154c-2.455485,0 -4.910588,-0.913229 -6.77996,-2.740154c-2.0712,-2.02417 -3.07305,-4.818302 -2.748593,-7.666402c0.058487,-0.514241 0.537887,-0.888491 1.058995,-0.827209c0.526189,0.057159 0.905394,0.520239 0.846429,1.03495c-0.259356,2.278479 0.542105,4.514515 2.199008,6.133702c2.990208,2.922314 7.856692,2.923155 10.847862,0c2.990593,-2.92316 2.990593,-7.678771 0,-10.601551c-2.529986,-2.47207 -6.449944,-2.860469 -9.412443,-1.095762l3.166148,0.790666c0.51315,0.128092 0.822554,0.638305 0.691486,1.139709c-0.110455,0.423629 -0.500493,0.705019 -0.928406,0.705019c-0.078142,0.000469 -0.158203,-0.009183 -0.237782,-0.029328l-6.183493,-1.544129l1.580007,-6.043558c0.130589,-0.501123 0.651217,-0.806782 1.166188,-0.675879c0.51315,0.128092 0.822554,0.638304 0.691487,1.139709l-0.728496,2.786351c3.677859,-2.058935 8.450861,-1.527733 11.551046,1.502058c3.738264,3.653008 3.738264,9.597709 0,13.251657z"/>
 </g>
</svg>