<svg width="18" height="18" xmlns="http://www.w3.org/2000/svg">
 <title/>
 <desc/>

 <g>
  <title>background</title>
  <rect fill="none" id="canvas_background" height="402" width="582" y="-1" x="-1"/>
 </g>
 <g>
  <title>Layer 1</title>
  <path fill="#47cbfc" id="Shape" d="m12.5,11l-0.799988,0l-0.300018,-0.299988c1,-1.100006 1.600006,-2.600006 1.600006,-4.200012c0,-3.600006 -2.899994,-6.5 -6.5,-6.5c-3.600006,0 -6.5,2.899994 -6.5,6.5c0,3.600006 2.899994,6.5 6.5,6.5c1.600006,0 3.100006,-0.600006 4.200012,-1.600006l0.299988,0.300018l0,0.799988l5,5l1.5,-1.5l-5,-5l0,0zm-6,0c-2.5,0 -4.5,-2 -4.5,-4.5c0,-2.5 2,-4.5 4.5,-4.5c2.5,0 4.5,2 4.5,4.5c0,2.5 -2,4.5 -4.5,4.5l0,0z"/>
 </g>
</svg>