<svg width="64" height="64" xmlns="http://www.w3.org/2000/svg">

 <g>
  <title>background</title>
  <rect fill="none" id="canvas_background" height="402" width="582" y="-1" x="-1"/>
 </g>
 <g>
  <title>Layer 1</title>
  <path fill="#47cbfc" id="svg_1" d="m59.5,15.8c-0.799999,0.599999 -1.599998,1.099999 -2.5,1.599999c0.099998,0.800001 0.099998,1.700001 0.099998,2.6c0,11.6 -5,22.099998 -12.899998,29.400002c-6.200001,4.599998 -13.900002,7.299999 -22.300001,7.299999c-7.299999,0 -14.099999,-2.100002 -19.9,-5.700001c1.2,0.200001 2.4,0.299999 3.7,0.299999c5.8,0 11.099999,-2 15.3,-5.299999c-5.4,-0.099998 -10,-3.700001 -11.6,-8.700001c0.700001,0.100002 1.5,0.200001 2.3,0.200001c1.1,0 2.1,-0.099998 3.1,-0.400002c-2.3,-0.5 -4.3,-1.699997 -5.900001,-3.299999c-2.3,-2.199999 -3.7,-5.4 -3.7,-8.799999c0,-0.1 0,-0.1 0,-0.200001c1.5,0.800001 3.1,1.300001 4.900001,1.5c-1.8,-1.4 -3.3,-3.299999 -4.1,-5.5c-0.5,-1.4 -0.8,-2.9 -0.8,-4.4c0,-0.599999 0,-1.299999 0.1,-1.9c0.3,-1.7 0.9,-3.3 1.7,-4.6c0.9,1 1.9,2 3,3c0.5,0.5 1.1,0.900001 1.6,1.400001c3.099999,2.499999 6.6,4.499999 10.299999,5.999999c0.5,0.200001 0.9,0.400002 1.4,0.5c1.700001,0.6 3.400002,1.1 5.200001,1.400002c0.4,0.099998 0.799999,0.199999 1.200001,0.199999c0.199999,0 0.299999,0.1 0.5,0.1c0.799999,0.1 1.5,0.200001 2.299999,0.299999c-0.200001,-0.9 -0.400002,-1.9 -0.400002,-3c0,-4.199999 2.100002,-7.9 5.300003,-10.099999c0.199997,-0.2 0.399998,-0.3 0.699997,-0.4c0,0 0.100002,0 0.100002,0.099999c0,0 0,-0.099999 0,-0.099999c1.899998,-1.1 4,-1.8 6.399998,-1.8c3.600002,0 6.800003,1.5 9.100002,4c0.799999,-0.2 1.700001,-0.4 2.5,-0.6c0.899998,-0.299999 1.700001,-0.5 2.5,-0.9c1,-0.4 1.899998,-0.9 2.799999,-1.4c-0.5,1.5 -1.299999,2.9 -2.299999,4.099999c-0.700001,0.8 -1.5,1.5 -2.299999,2.2c-0.200001,0.1 -0.400002,0.3 -0.600002,0.400001c-0.099998,0 -0.099998,0 -0.200001,0c0,0 0,0 0,0.099999c0,0 0.100002,-0.099999 0.100002,-0.099999c0.200001,0 0.399998,-0.1 0.700001,-0.1c0.899998,-0.099999 1.699997,-0.3 2.599998,-0.5c0.900002,-0.2 1.799999,-0.5 2.599998,-0.8c-0.899998,0.6 -1.799999,1.200001 -2.599998,1.900001z" class="st4"/>
 </g>
</svg>