<?xml version="1.0" standalone="no"?>
<!DOCTYPE svg PUBLIC "-//W3C//DTD SVG 20010904//EN"
 "http://www.w3.org/TR/2001/REC-SVG-20010904/DTD/svg10.dtd">
<svg version="1.0" xmlns="http://www.w3.org/2000/svg"
 width="700.000000pt" height="700.000000pt" viewBox="0 0 700.000000 700.000000"
 preserveAspectRatio="xMidYMid meet">
<metadata>
Created by potrace 1.14, written by Peter Selinger 2001-2017
</metadata>
<g transform="translate(0.000000,700.000000) scale(0.100000,-0.100000)"
fill="#000000" stroke="none">
<path d="M3223 6851 c-17 -11 -34 -28 -37 -38 -17 -57 -14 -72 31 -148 25 -42
44 -78 42 -80 -2 -2 -51 -22 -109 -45 -180 -72 -328 -139 -525 -240 -553 -282
-1020 -621 -1473 -1065 -213 -209 -231 -245 -160 -316 23 -23 38 -29 71 -29
39 0 47 6 191 148 185 182 231 224 372 344 425 362 935 676 1469 905 74 32
253 103 260 103 7 0 67 -184 80 -250 2 -8 8 -37 15 -64 18 -80 25 -172 25
-331 -1 -168 -5 -219 -34 -355 -46 -219 -151 -460 -278 -640 -127 -178 -347
-379 -539 -492 -160 -93 -393 -181 -544 -204 -19 -3 -46 -7 -60 -10 -98 -17
-299 -23 -432 -11 -318 27 -674 173 -923 378 -57 47 -235 227 -235 237 0 5 39
61 86 123 329 434 716 817 1153 1143 230 172 478 329 724 461 121 65 147 90
147 147 0 64 -51 106 -122 99 -49 -5 -411 -214 -663 -384 -146 -98 -386 -280
-509 -386 -352 -303 -653 -622 -909 -966 -54 -71 -101 -134 -105 -140 -4 -5
-22 -31 -39 -56 l-32 -46 83 -104 c223 -280 516 -489 857 -613 116 -42 282
-83 369 -92 36 -3 69 -9 74 -12 16 -9 337 -10 401 -1 33 4 83 11 110 14 64 7
236 48 311 75 32 11 58 19 59 17 1 -1 77 -102 169 -225 l166 -222 444 332
c244 183 445 339 445 345 1 10 -91 135 -320 439 -5 6 8 33 29 65 117 168 232
427 278 624 29 126 34 159 50 309 5 51 5 288 -1 336 -36 314 -118 562 -273
823 -67 113 -119 140 -189 98z m52 -2537 c47 -64 85 -117 83 -118 -39 -31
-535 -403 -544 -409 -8 -5 -41 31 -98 106 -47 62 -86 116 -86 119 0 4 30 23
68 44 142 79 310 205 417 313 33 33 63 61 66 61 4 0 46 -52 94 -116z"/>
<path d="M4739 5498 c-7 -7 -47 -40 -86 -72 -40 -32 -73 -60 -73 -63 0 -2 37
-50 83 -106 205 -251 333 -409 342 -423 7 -11 6 -19 -6 -27 -8 -7 -151 -122
-318 -257 -166 -135 -306 -246 -311 -248 -5 -2 -18 7 -29 20 -40 47 -327 405
-366 455 -22 29 -44 52 -50 53 -8 0 -133 -96 -169 -131 -8 -7 30 -64 96 -141
30 -34 31 -36 178 -218 68 -85 148 -184 178 -220 29 -36 59 -72 65 -80 58 -72
392 -486 397 -490 3 -3 37 -44 74 -92 38 -49 72 -88 75 -88 9 0 166 129 169
140 3 7 -149 203 -213 276 -5 7 -17 20 -25 31 -8 10 -71 87 -138 171 l-124
153 24 20 c47 41 67 57 218 178 85 69 157 127 160 131 3 3 25 21 50 40 25 19
47 37 50 40 3 3 37 31 77 63 l72 57 147 -182 c271 -335 355 -437 362 -442 4
-2 30 14 58 37 28 23 67 55 87 71 l36 29 -32 41 c-18 23 -74 93 -126 156 -124
153 -146 180 -227 280 -37 47 -70 87 -73 90 -3 3 -78 95 -166 205 -88 110
-162 202 -165 205 -3 3 -44 52 -90 110 -46 58 -87 107 -90 110 -3 3 -17 21
-32 40 -68 89 -73 93 -89 78z"/>
<path d="M3515 3862 c-55 -12 -92 -68 -81 -123 3 -17 47 -81 103 -151 311
-383 463 -573 463 -578 0 -3 -22 -21 -48 -40 -130 -96 -285 -277 -372 -435
-132 -239 -192 -563 -156 -835 66 -486 400 -913 855 -1091 57 -22 113 -42 123
-44 11 -2 27 -6 36 -9 9 -3 29 -7 45 -10 15 -3 35 -7 45 -10 65 -20 319 -28
427 -14 444 56 845 337 1045 732 70 139 122 300 136 421 3 22 7 51 9 65 6 32
7 258 1 285 -2 11 -7 43 -10 70 -18 132 -71 291 -145 430 -26 50 -47 101 -46
115 5 84 99 120 154 61 37 -40 125 -219 161 -330 63 -194 90 -443 69 -641 -32
-310 -155 -606 -352 -848 -42 -52 -183 -187 -237 -229 -96 -73 -226 -149 -334
-196 -100 -44 -284 -99 -371 -111 -22 -3 -60 -8 -85 -12 -54 -7 -267 -7 -330
0 -251 30 -497 119 -703 255 -218 145 -406 358 -525 599 -118 236 -170 479
-159 745 8 184 18 249 63 399 25 85 96 258 123 298 25 39 39 62 57 95 25 44
117 161 177 225 69 72 70 73 46 101 -11 13 -33 39 -47 58 -15 19 -79 97 -142
175 -63 78 -141 174 -174 215 -69 86 -109 108 -163 90 -46 -15 -76 -62 -70
-110 4 -28 37 -76 157 -225 84 -104 159 -196 166 -204 11 -13 3 -30 -59 -112
-226 -303 -345 -657 -349 -1035 -2 -123 7 -250 22 -318 5 -22 12 -56 15 -75
24 -148 129 -407 228 -565 263 -420 671 -698 1177 -802 73 -15 248 -29 340
-27 100 1 249 13 260 19 3 2 26 6 50 10 76 10 229 54 324 91 412 163 758 487
946 887 59 125 114 290 136 405 9 48 18 96 21 107 3 11 7 108 9 215 3 244 -16
379 -87 595 -40 122 -151 344 -199 397 -142 159 -403 122 -497 -70 -24 -48
-28 -69 -28 -137 1 -77 3 -84 58 -190 51 -100 72 -150 105 -255 42 -133 50
-379 17 -535 -61 -288 -217 -535 -450 -710 -60 -45 -219 -128 -305 -158 -43
-16 -142 -39 -225 -52 -64 -10 -237 -8 -322 5 -323 47 -623 238 -797 508 -99
153 -157 309 -181 487 -7 53 -8 247 -2 280 3 11 8 43 12 70 5 28 9 52 10 55 1
3 7 25 14 50 51 185 171 390 299 511 45 43 229 196 319 266 14 11 -8 42 -163
235 -98 123 -181 225 -184 228 -3 3 -73 88 -155 190 -82 102 -159 195 -170
208 -23 25 -69 41 -100 34z"/>
<path d="M2034 3582 c-29 -43 -123 -183 -211 -312 -231 -342 -590 -874 -644
-955 l-46 -70 90 -62 c50 -35 94 -63 98 -63 3 0 22 24 41 53 68 103 351 522
358 530 10 11 239 -142 290 -193 60 -60 82 -111 88 -206 4 -69 -5 -187 -23
-304 -18 -115 -45 -353 -40 -360 8 -13 183 -130 194 -130 5 0 9 8 9 18 0 9 5
55 11 102 6 47 14 103 17 125 2 22 7 51 9 65 4 25 11 80 21 170 2 25 7 56 9
70 9 46 6 226 -5 274 -6 27 -18 62 -26 78 -19 37 -15 42 28 30 64 -17 163 -6
232 26 80 38 134 86 192 174 162 244 118 471 -129 666 -48 38 -452 315 -502
344 -5 3 -33 -28 -61 -70z m270 -299 c199 -132 265 -205 279 -308 6 -44 -16
-126 -47 -179 -83 -142 -214 -197 -350 -146 -32 12 -125 67 -206 121 l-148 99
127 188 c69 103 144 215 166 249 22 35 42 63 44 63 3 0 63 -39 135 -87z"/>
<path d="M4607 2733 l-459 -116 7 -31 c3 -17 8 -38 10 -46 8 -35 377 -1508
385 -1541 l10 -36 58 14 c31 8 62 15 67 17 6 1 27 6 48 11 20 4 39 11 42 15 3
5 -27 136 -66 292 -110 439 -121 489 -116 494 4 4 91 28 177 48 96 23 465 118
467 120 3 3 -36 178 -41 183 -2 2 -76 -15 -186 -43 -65 -16 -107 -26 -120 -29
-8 -2 -44 -11 -80 -20 -36 -9 -72 -18 -80 -20 -8 -2 -53 -13 -99 -25 -46 -11
-87 -18 -91 -13 -8 10 -123 473 -118 477 1 2 164 43 361 92 l358 89 -5 30
c-12 61 -14 71 -25 113 -8 29 -17 42 -29 41 -9 0 -223 -53 -475 -116z"/>
</g>
</svg>
