<svg width="100" height="100" xmlns="http://www.w3.org/2000/svg">

 <g>
  <title>background</title>
  <rect fill="none" id="canvas_background" height="402" width="582" y="-1" x="-1"/>
 </g>
 <g>
  <title>Layer 1</title>
  <path fill="#47cbfc" id="svg_1" d="m50.139999,29.389999c-0.110001,-4.689999 -1.079998,-12.119999 -5.73,-16.49c-7.329998,-6.88 -18.93,-5.49 -24.15,-1.9c-4.84,3.33 -6.88,7.34 -8.530001,10.559999c-1.309999,2.57 -2.45,4.800001 -4.599999,5.860001c-0.13,0.059999 -0.15,0.1 -0.12,0.25c0.25,1.120001 3.94,3.93 8.59,4.02c2.5,0.049999 4.57,-0.49 6.77,-1.050001c2.809999,-0.719999 5.709999,-1.459999 9.749998,-1.099998c6.940002,0.619999 13,3.849998 13.260002,3.989998c0,0 0,0 0.009998,0.010002c0.34,0 0.670002,0.009998 1,0.02c0.709999,0.02 1.389999,0.039997 2.010002,0.039997c-3.240002,-5.449999 -9.040001,-9.879999 -15.280003,-11.619999c-4.769999,-1.32 -9.309999,-0.959999 -12.799999,1.02c-0.24,0.139999 -0.539999,0.049999 -0.68,-0.190001s-0.049999,-0.539999 0.190001,-0.68c3.719999,-2.109999 8.530001,-2.509998 13.559999,-1.109999c6.75,1.879999 12.790001,6.559999 16.139999,12.52c0.010002,0.009998 0.010002,0.02 0.010002,0.040001c0.169998,-0.010002 0.329998,-0.030003 0.48,-0.040001c0.029999,-0.310001 0.110001,-1.23 0.130001,-2.540001c-0.030003,-0.549999 -0.02,-1.08 -0.010002,-1.610001zm-21.439999,-11.439999l-0.050001,0c-0.26,0 -0.48,-0.190001 -0.5,-0.450001c-0.129999,-1.23 -0.529999,-2.44 -1.18,-3.48c-0.139999,-0.23 -0.07,-0.540001 0.17,-0.690001c0.230001,-0.14 0.540001,-0.07 0.690001,0.17c0.719999,1.17 1.17,2.52 1.309999,3.9c0.030001,0.27 -0.17,0.52 -0.439999,0.550001zm9.419998,0.269999c-0.09,0.140001 -0.25,0.220001 -0.419998,0.220001c-0.09,0 -0.18,-0.02 -0.27,-0.08c-0.23,-0.150002 -0.290001,-0.460001 -0.139999,-0.690001c0.32,-0.5 0.509998,-1.08 0.549999,-1.68c0.02,-0.28 0.259998,-0.48 0.529999,-0.469999c0.280003,0.02 0.490002,0.25 0.470001,0.529999c-0.049999,0.780001 -0.299999,1.52 -0.720001,2.17z"/>
  <path fill="#47cbfc" id="svg_2" d="m62.400002,16.74c-0.040001,0.200001 -0.710003,0.710001 -1.260002,1.120001c-2.48,1.869999 -7.110001,5.359999 -7.709999,14.509998c-0.670002,0.350002 -1.330002,0.639999 -2.010002,0.860001c-0.129997,-0.700001 -0.209999,-1.4 -0.259998,-2.08c0.02,-0.639999 0.02,-1.379999 0,-2.190001c0.470001,-8.24 6.400002,-14.369999 7.34,-14.699999c0.52,-0.1 2.43,0.58 3.439999,1.59c0.200001,0.199999 0.52,0.57 0.460003,0.889999z"/>
  <path fill="#ffab3c" id="svg_3" d="m90.309998,68.25c-5.869995,17.010002 -12.939995,19.07 -15.269997,19.75c-3.139999,0.910004 -4.900002,0.900002 -6.770004,0.879997c-1.219994,-0.009995 -2.489998,-0.019997 -4.18,0.230003c-2.009995,0.290001 -3.789997,0.860001 -5.519997,1.409996c-2.029999,0.650002 -3.939999,1.260002 -6.16,1.450005c-0.329998,0.029999 -8.279999,0.619995 -15.669998,-5.82c-8.440002,-7.349998 -13.780003,-16.090004 -15.860003,-25.970001c-2.75,-13.060001 5.33,-20.09 8.93,-22.510002c4.08,-2.739998 9.340002,-3.16 13.620001,-3.16c1.049999,0 2.029999,0.030003 2.93,0.050003c1.989998,0.049999 3.559998,0.09 4.549999,-0.150002c2.420002,-0.57 4.470001,-1.939999 7.060001,-3.67c0.959999,-0.65 1.989998,-1.34 3.139999,-2.039999c5.120003,-3.17 15.93,-4.41 23.900002,2.779999c6.619995,5.959999 11.099998,20.010002 5.299995,36.77z"/>
 </g>
</svg>