<svg width="100" height="100" xmlns="http://www.w3.org/2000/svg">

 <g>
  <title>background</title>
  <rect fill="none" id="canvas_background" height="402" width="582" y="-1" x="-1"/>
 </g>
 <g>
  <title>Layer 1</title>
  <path fill="#ffab3c" id="svg_1" d="m81.830002,70.040001c-7.07,13.440002 -18.780003,18.470001 -23.350002,18.799995c-3.84,0.270004 -16.119999,-0.869995 -26.68,-9.359993c-9.929998,-8 -14.82,-15.780003 -15.379999,-24.500004c-0.25,-3.880001 1.01,-17.209999 27.620001,-25.9c20.709999,-6.75 34.18,-4.549999 38.940002,6.359999c2.159996,4.920002 6.139999,20.740002 -1.150002,34.600002z"/>
  <path fill="#47cbfc" id="svg_2" d="m36.290001,30.940001c-2.370003,1.039999 -4.470001,2.109999 -6.34,3.210001c-0.01,0 -0.01,0.009998 -0.01,0.009998c-0.030001,0 -0.050001,0.009998 -0.07,0.02c-2.460001,1.329998 -7.150002,1.709999 -8.92,0.23c-0.92,-0.77 -2.1,-1.110001 -3.150002,-1.419998c-0.779999,-0.230003 -1.599998,-0.470001 -1.75,-0.780003c-0.049999,-0.099998 -0.029999,-0.24 0.040001,-0.419998c0.23,-0.570002 2.360001,-5.460001 8.049999,-6.360001c0.5,0.84 1.17,1.65 2.050001,2.379999c2.68,2.24 7.359999,2.92 10.1,3.130001z"/>
  <path fill="#47cbfc" id="svg_3" d="m67.239998,17.09c-2.32,2.98 -4.509998,5.789999 -7.949997,7.440001c-0.010002,0.01 -0.02,0.01 -0.030003,0.019999c-2.369999,0.26 -4.939999,0.710001 -7.75,1.380001c1.380001,-1.110001 3.27,-2.84 4.52,-4.809999c1.760002,-2.76 2.810001,-5.370001 3.420002,-7.31l0.040001,0c2.929996,-0.42 6.939999,1.759999 7.66,2.999999c0.089996,0.15 0.110001,0.25 0.089996,0.280001z"/>
  <path fill="#47cbfc" id="svg_4" d="m44.599998,27.85c-0.289997,0.09 -0.579998,0.18 -0.869999,0.279999c-0.549999,0.18 -1.079998,0.360001 -1.599998,0.540001c-0.02,-0.049999 -0.049999,-0.1 -0.09,-0.15l-0.350002,-0.4c-1.57,-1.820002 -2.82,-3.25 -5.91,-5.810001c-0.209999,-0.18 -0.529999,-0.15 -0.699997,0.060001c-0.18,0.209999 -0.150002,0.529999 0.059998,0.709999c3.029999,2.51 4.25,3.91 5.799999,5.690001l0.210003,0.25c-0.93,0.33 -1.82,0.67 -2.68,1.01c-0.010002,0 -0.010002,0 -0.02,0c0,0 0,0 -0.010002,0c-0.039997,0 -8.009998,0.019999 -11.609999,-2.99c-2.530001,-2.1 -3.059999,-4.940001 -3.059999,-6.940001c0,-2.83 1.039999,-5.150001 1.48,-5.52c1.07,-0.89 7.119999,-2.33 11.740002,0.06c4.66,2.419999 7.239998,9.11 7.609997,13.21z"/>
  <path fill="#47cbfc" id="svg_5" d="m59.25,10.52c-0.169998,0.969999 -1.060001,5.309999 -4.07,10.07c-2.010002,3.190001 -5.970001,5.799999 -6.010002,5.83c-0.059998,0.039999 -0.099998,0.08 -0.129997,0.139999c-1.120003,0.290001 -2.27,0.620001 -3.459999,0.980001c-0.110001,-1.080002 -0.370003,-2.360001 -0.790001,-3.710001c0.009998,-0.030001 0.02,-0.059999 0.02,-0.09c0.119999,-3.030001 2.389999,-5.809999 3.369999,-6.869999c0.18,-0.200001 0.169998,-0.51 -0.029999,-0.700001c-0.200001,-0.190001 -0.52,-0.18 -0.710003,0.030001c-0.859997,0.92 -2.639999,3.09 -3.34,5.689999c-0.509998,-1.26 -1.16,-2.529999 -1.949997,-3.699999c0.019997,-0.02 0.029999,-0.050001 0.029999,-0.08c0.689999,-3.39 2.32,-5.900001 4.970001,-7.670001c1.82,-1.219999 4.5,-1.77 7.329998,-1.5c2.400002,0.22 4.18,0.950001 4.77,1.580001z"/>
 </g>
</svg>