<svg width="100.00000000000001" height="100.00000000000001" xmlns="http://www.w3.org/2000/svg">

 <g>
  <title>background</title>
  <rect fill="none" id="canvas_background" height="402" width="582" y="-1" x="-1"/>
 </g>
 <g>
  <title>Layer 1</title>
  <path fill="#47cbfc" id="svg_1" d="m92.959999,73.880997c-0.82,10.480003 -9.18,15.510002 -10.879997,16.43c-9.050003,4.940002 -24.280003,3.220001 -31.640003,-7.139999c-4.059998,-5.699997 -6.099998,-14.769997 -2.149998,-21.049999l0.049999,-0.099998c1.419998,-2.310001 4.709999,-6.209999 10.779999,-6.34l0.220001,0c2.169998,0 4.670002,0.66 6.880001,1.240002c1.549995,0.41 2.889999,0.759998 3.889999,0.829998c0.629997,0.040001 1.529999,-0.119999 2.669998,-0.32c3.410004,-0.599998 9.099998,-1.599998 14.080002,1.920002c6.779999,4.810001 6.139999,14.139996 6.099998,14.529995z"/>
  <path fill="#47cbfc" id="svg_2" d="m51.509998,57.151001c-1.949997,1.379997 -3.239998,3.09 -4.019997,4.349998l-0.050003,0.080002c-2.02,3.220001 -2.579998,6.959999 -2.199997,10.619995c-0.040001,0.020004 -0.080002,0.040001 -0.110001,0.070007c-7.41,6.049995 -15.780001,4.489998 -19.030001,3.539993l-0.190001,-0.049995c-10.349999,-2.580002 -20.57,-13.760002 -18.69,-25.670002c1.04,-6.560001 6,-14.099998 13.480001,-15.82c1.289999,-0.299999 8.029999,-1.549999 13.450001,2.990002c1.66,1.399998 2.889999,3.439999 3.969997,5.239998c0.77,1.299999 1.440002,2.41 2.170002,3.139999c0.469997,0.470001 1.290001,0.93 2.329998,1.52c3.049999,1.709999 7.650002,4.299999 8.850002,9.880001c0.009998,0.040001 0.02,0.079998 0.039997,0.110001z"/>
  <path fill="#ffab3c" id="svg_3" d="m71.830002,56.591c-0.590004,0.100002 -1.110001,0.170002 -1.480003,0.170002c-0.059998,0 -0.119995,-0.010002 -0.169998,-0.010002c-0.279999,-0.02 -0.610001,-0.059998 -0.959999,-0.130001c3.07,-7.84 4.339996,-20.379997 -6.330002,-36.259998c-0.02,-0.040001 -0.049999,-0.07 -0.09,-0.1c0.619999,-2.459999 0.830002,-4.18 0.880001,-4.599999c0.029999,-0.280001 -0.170002,-0.52 -0.439999,-0.55c-0.280003,-0.04 -0.52,0.17 -0.550003,0.44c-0.119999,1.070001 -1.32,10.72 -8.049999,19.29c-4.209999,5.360001 -10.84,9.350002 -13.130001,10.490002c-0.209999,-0.139999 -0.389999,-0.280003 -0.509998,-0.400002c-0.330002,-0.329998 -0.650002,-0.759998 -0.98,-1.27c0.189999,-0.099998 0.389999,-0.209999 0.599998,-0.32c2.389999,-1.279999 6.389999,-3.41 11.27,-8.52c5.77,-6.039999 6.869999,-15.289999 5.25,-17.809999c-0.779999,-1.219999 -2.029999,-1.34 -3.029999,-1.429999c-1.310001,-0.110001 -2.100002,-0.190001 -2.240002,-1.97c-0.129997,-1.55 0.600002,-2.92 2.049999,-3.84c1.950001,-1.25 5.440002,-1.65 8.820004,0.27c2.109997,1.19 2.09,3.219999 2.079998,5.179999c-0.010002,1.31 -0.019997,2.55 0.629997,3.44l0.280006,0.380001c1.599998,2.17 5.339996,7.23 7.579994,16.060001c2.389999,9.449997 0.130005,18.059998 -1.479996,21.489998z"/>
  <path fill="#ffab3c" id="svg_4" d="m42.41,15.581c-0.079998,0.04 -0.16,0.059999 -0.240002,0.059999c-0.179996,0 -0.349998,-0.099999 -0.439999,-0.26c-0.009998,-0.009999 -0.709999,-1.259999 -1.970001,-2.41c-0.209999,-0.179999 -0.219997,-0.5 -0.039997,-0.7c0.189999,-0.21 0.5,-0.22 0.709999,-0.04c1.389999,1.26 2.139999,2.61 2.169998,2.67c0.140003,0.24 0.050003,0.54 -0.189999,0.68z"/>
  <path fill="#ffab3c" id="svg_5" d="m43.419998,25.111c-1.039997,1.23 -1.579998,1.450001 -2.399998,1.780001l-0.260002,0.109999c-0.059998,0.030001 -0.129997,0.040001 -0.189999,0.040001c-0.200001,0 -0.380001,-0.120001 -0.459999,-0.309999c-0.110001,-0.25 0.009998,-0.550001 0.27,-0.650002l0.259998,-0.109999c0.75,-0.310001 1.130001,-0.470001 2.02,-1.5c0.18,-0.220001 0.5,-0.24 0.709999,-0.060001c0.210003,0.18 0.23,0.49 0.049999,0.700001z"/>
  <path fill="#ffab3c" id="svg_6" d="m56.299999,17.551001c-0.259998,-0.41 -0.599998,-0.630001 -0.98,-0.75c-1.329998,1.789999 -6.009998,4.5 -10.709999,4.5c-1.25,0 -2.510002,-0.190001 -3.700001,-0.640001c-3.200001,-1.219999 -5.389999,-2.92 -7.509998,-4.559999c-1.680002,-1.309999 -3.270002,-2.54 -5.210001,-3.38c-0.26,-0.12 -0.370001,-0.41 -0.26,-0.66c0.110001,-0.26 0.4,-0.37 0.66,-0.26c2.049999,0.900001 3.689999,2.160001 5.419998,3.51c2.060001,1.599999 4.200001,3.250001 7.25,4.410001c3.110001,1.179998 6.600002,0.41 9.25,-0.780001c-1.139999,-3.52 -8.509998,-14.23 -20.659998,-11.5c-1.880001,0.42 -3.52,0.81 -4.960001,1.15c-6.099998,1.43 -8.709999,2.04 -11.419999,1.320001c0.25,1.259999 0.91,2.33 1.96,3.19c2.1,1.690001 5.15,2.110001 6.6,2.13c-0.74,-0.84 -1.530001,-1.38 -2.5,-1.72c-0.26,-0.09 -0.400002,-0.37 -0.310001,-0.63c0.09,-0.27 0.380001,-0.4 0.640001,-0.309999c3.15,1.11 4.599998,3.929999 6.939999,9.679999c2.450001,6.02 11.02,11.630001 17.970001,9.550001c7.079998,-2.120001 6.959999,-9.58 6.950001,-9.66c0,-0.200001 0.119999,-0.390001 0.299999,-0.470001c0.470001,-0.209999 2.880001,-1.309999 4.579998,-2.91c0.030003,-0.029999 0.060001,-0.049999 0.09,-0.049999l0,-0.01c-0.079998,-0.49 -0.219997,-0.880001 -0.389999,-1.15zm-16.579998,-5.280001c0.189999,-0.21 0.5,-0.22 0.709999,-0.04c1.389999,1.26 2.139999,2.61 2.169998,2.67c0.140003,0.24 0.050003,0.54 -0.189999,0.68c-0.079998,0.04 -0.16,0.059999 -0.240002,0.059999c-0.179996,0 -0.349998,-0.099999 -0.439999,-0.26c-0.009998,-0.009999 -0.709999,-1.259999 -1.970001,-2.41c-0.209999,-0.179999 -0.219997,-0.5 -0.039997,-0.7zm-8.420002,6.809999c-0.019999,0 -0.309999,0.050001 -0.879999,0.050001c-0.450001,0 -1.059999,-0.030001 -1.84,-0.130001c-0.280001,-0.029999 -0.469999,-0.279999 -0.43,-0.559999c0.030001,-0.27 0.280001,-0.459999 0.559999,-0.43c1.620001,0.210001 2.410002,0.09 2.42,0.09c0.27,-0.049999 0.530001,0.130001 0.570002,0.41c0.049999,0.27 -0.130001,0.52 -0.400002,0.57zm12.119999,6.030001c-1.039997,1.23 -1.579998,1.450001 -2.399998,1.780001l-0.260002,0.109999c-0.059998,0.030001 -0.129997,0.040001 -0.189999,0.040001c-0.200001,0 -0.380001,-0.120001 -0.459999,-0.309999c-0.110001,-0.25 0.009998,-0.550001 0.27,-0.650002l0.259998,-0.109999c0.75,-0.310001 1.130001,-0.470001 2.02,-1.5c0.18,-0.220001 0.5,-0.24 0.709999,-0.060001c0.210003,0.18 0.23,0.49 0.049999,0.700001z"/>
  <path fill="#ffab3c" id="svg_7" d="m31.700001,18.511c0.049999,0.27 -0.130001,0.52 -0.400002,0.57c-0.019999,0 -0.309999,0.050001 -0.879999,0.050001c-0.450001,0 -1.059999,-0.030001 -1.84,-0.130001c-0.280001,-0.029999 -0.469999,-0.279999 -0.43,-0.559999c0.030001,-0.27 0.280001,-0.459999 0.559999,-0.43c1.620001,0.210001 2.410002,0.09 2.42,0.09c0.27,-0.049999 0.530001,0.130001 0.570002,0.41z"/>
 </g>
</svg>