<svg width="100" height="100" xmlns="http://www.w3.org/2000/svg">

 <g>
  <title>background</title>
  <rect fill="none" id="canvas_background" height="402" width="582" y="-1" x="-1"/>
 </g>
 <g>
  <title>Layer 1</title>
  <path fill="#ffab3c" id="svg_1" d="m89.989998,53.790001c-0.220001,-7.130001 -2.049995,-13.610001 -5.589996,-19.790001c-7.310005,-12.75 -20.290001,-22.87 -31.580002,-24.59c-10.610001,-1.61 -19.75,1.99 -22.76,3.17c-0.43,0.17 -0.75,0.3 -0.939999,0.36c-1.450001,0.450001 -3.26,0.17 -5.17,-0.129999c-1.290001,-0.21 -2.6,-0.410001 -3.860001,-0.410001c-1.870001,0 -3.620001,0.450001 -5.01,2.04c-2,2.27 -1.48,5.77 -1.03,8.86c0.23,1.6 0.45,3.110001 0.27,4.25c-0.2,1.18 -0.77,2.92 -1.44,4.940002c-1.14,3.439999 -2.55,7.73 -2.76,11.32c-0.28,4.739998 -0.79,13.559998 6.929999,25.759998c7.85,12.389999 22.09,21.199997 34.619999,21.419998c7.720001,0.130005 11.120003,-1.009995 14.130005,-2.019997c2.18,-0.730003 4.239998,-1.419998 7.529999,-1.470001c6.439995,-0.099998 10.349998,-0.629997 12.57,-3.129997c3.18,-3.590004 1.879997,-9.420006 1.400002,-11.120003c-0.460007,-1.68 0.259995,-4.290001 1.019997,-7.07l0.160004,-0.610001c0.579994,-2.130001 1.639999,-7.329998 1.509995,-11.779999zm-8.739998,25.409996c-1.089996,0.530006 -1.889999,1.210007 -2.370003,2.030006c-0.089996,0.159996 -0.259995,0.25 -0.43,0.25c-0.089996,0 -0.169998,-0.020004 -0.25,-0.060005c-0.239998,-0.139999 -0.32,-0.449997 -0.18,-0.689995c0.57,-1 1.520004,-1.810005 2.800003,-2.43c0.25,-0.120003 0.550003,-0.020004 0.669998,0.229996s0.010002,0.550003 -0.239998,0.669998z"/>
 </g>
</svg>