<svg width="512" height="512" xmlns="http://www.w3.org/2000/svg">

 <g>
  <title>background</title>
  <rect fill="none" id="canvas_background" height="402" width="582" y="-1" x="-1"/>
 </g>
 <g>
  <title>Layer 1</title>
  <path fill="#ffab3c" id="XMLID_13840_" d="m318.325989,136.565994c-1.980011,-0.585007 -3.338013,-2.404007 -3.338013,-4.468002l0,-29.454002l-45.009979,0l0,-25.424988c0,-15.759003 -12.820007,-28.580002 -28.57901,-28.580002l-26.716003,0c-15.758987,0 -28.579987,12.820999 -28.579987,28.580002l0,21.080002c-3.781006,4.383995 -20.876007,19.984993 -58.180008,-2.397003c-2.207001,-1.323997 -5.069,-0.608002 -6.392998,1.598999s-0.608002,5.069 1.598999,6.392998c14.568001,8.741005 27.933006,13.129005 39.918999,13.128006c4.917007,0 9.604004,-0.739006 14.044006,-2.219002c11.86499,-3.955002 17.321991,-11.980003 17.547989,-12.32c0.51001,-0.765999 0.783005,-1.665001 0.783005,-2.584999l0,-22.679001c0,-10.620003 8.639999,-19.260002 19.259995,-19.260002l26.716003,0c10.62001,0 19.261017,8.639999 19.261017,19.260002l0,25.424995l-35.63002,0l0,25.212006l49.608994,0c2.574005,0 4.660004,2.085999 4.660004,4.660004s-2.085999,4.659988 -4.660004,4.659988l-53.17099,0c-70.218002,21.757004 -117.375999,85.762009 -117.375999,159.364014c0,91.984985 74.834999,166.820984 166.82,166.820984s166.821014,-74.835999 166.821014,-166.820984c-0.001007,-73.38501 -49.10199,-139.168015 -119.407013,-159.974014zm63.128998,207.431992c-11,26.403015 -36.589996,62.035004 -96.02301,81.845001c-0.488007,0.162994 -0.984009,0.240997 -1.475006,0.240997c-1.950989,0 -3.768005,-1.234009 -4.418976,-3.187988c-0.813019,-2.442017 0.504974,-5.080017 2.946991,-5.89502c45.04599,-15.014984 75.449982,-40.781982 90.367981,-76.587982c11.068024,-26.565002 9.006012,-48.779999 8.984009,-49.002014c-0.255981,-2.561005 1.610992,-4.843994 4.171997,-5.100983c2.563019,-0.256012 4.843994,1.613007 5.10202,4.173981c0.100006,1.000031 2.309021,24.800018 -9.656006,53.514008z"/>
  <path fill="#ffab3c" id="XMLID_13843_" d="m104.803001,66.786003l18.639,9.319c0.668999,0.334 1.379997,0.492996 2.080002,0.492996c1.709,0 3.354996,-0.944 4.171997,-2.576996c1.151001,-2.302002 0.218002,-5.101006 -2.084,-6.251007l-18.639,-9.319996c-2.302002,-1.151001 -5.100998,-0.218002 -6.250999,2.084c-1.152,2.301998 -0.219002,5.101002 2.083,6.252003z"/>
  <path fill="#ffab3c" id="XMLID_13844_" d="m102.226997,99.896004c0,-2.573006 -2.085999,-4.660004 -4.659996,-4.660004l-18.639,0c-2.572998,0 -4.660004,2.085999 -4.660004,4.660004s2.085999,4.659996 4.660004,4.659996l18.639,0c2.573997,0 4.659996,-2.085999 4.659996,-4.659996z"/>
  <path fill="#ffab3c" id="XMLID_13845_" d="m120.374001,125.771004c-1.151001,-2.303001 -3.952003,-3.235001 -6.250999,-2.084007l-18.639,9.319c-2.302002,1.151001 -3.235001,3.949997 -2.084,6.251999c0.816002,1.633011 2.460999,2.577011 4.170998,2.577011c0.700005,0 1.412003,-0.158005 2.080002,-0.493011l18.639,-9.319992c2.302002,-1.149002 3.235001,-3.949005 2.084,-6.250999z"/>
 </g>
</svg>